<svg width="20" height="20" viewBox="0 0 20 20" fill="none" xmlns="http://www.w3.org/2000/svg">
<path d="M19.5911 18.2168L14.924 13.2662C16.124 11.8113 16.7815 9.98069 16.7815 8.07499C16.7815 3.62251 13.2296 0 8.86403 0C4.49843 0 0.946594 3.62251 0.946594 8.07499C0.946594 12.5275 4.49843 16.15 8.86403 16.15C10.5029 16.15 12.0647 15.6458 13.4 14.6888L18.1026 19.677C18.2992 19.8852 18.5636 20 18.8469 20C19.115 20 19.3694 19.8957 19.5626 19.7061C19.9729 19.3034 19.986 18.6357 19.5911 18.2168ZM8.86403 2.10652C12.0909 2.10652 14.716 4.78391 14.716 8.07499C14.716 11.3661 12.0909 14.0435 8.86403 14.0435C5.63716 14.0435 3.01201 11.3661 3.01201 8.07499C3.01201 4.78391 5.63716 2.10652 8.86403 2.10652Z" fill="#E0E0E0"/>
</svg>
