<svg width="19" height="19" viewBox="0 0 19 19" xmlns="http://www.w3.org/2000/svg">
<path fill-rule="evenodd" clip-rule="evenodd" d="M2 0C0.895432 0 0 0.895431 0 2C0 3.10457 0.89543 4 2 4H7C8.10457 4 9 3.10457 9 2C9 0.895431 8.10457 0 7 0H2ZM7 1.5H2C1.72386 1.5 1.5 1.72386 1.5 2C1.5 2.27614 1.72386 2.5 2 2.5H7C7.27614 2.5 7.5 2.27614 7.5 2C7.5 1.72386 7.27614 1.5 7 1.5Z" />
<path fill-rule="evenodd" clip-rule="evenodd" d="M12 0C10.8954 0 10 0.895431 10 2V9H17C18.1046 9 19 8.10457 19 7V2C19 0.895431 18.1046 0 17 0H12ZM17.5 7C17.5 7.27614 17.2761 7.5 17 7.5H11.5V2C11.5 1.72386 11.7239 1.5 12 1.5L17 1.5C17.2761 1.5 17.5 1.72386 17.5 2V7Z" />
<path fill-rule="evenodd" clip-rule="evenodd" d="M17 10H10V17C10 18.1046 10.8954 19 12 19H17C18.1046 19 19 18.1046 19 17V12C19 10.8954 18.1046 10 17 10ZM11.5 17C11.5 17.2761 11.7239 17.5 12 17.5H17C17.2761 17.5 17.5 17.2761 17.5 17V12C17.5 11.7239 17.2761 11.5 17 11.5H11.5V17Z" />
<path fill-rule="evenodd" clip-rule="evenodd" d="M0 7C0 5.89543 0.895432 5 2 5H7C8.10457 5 9 5.89543 9 7C9 8.10457 8.10457 9 7 9H2C0.89543 9 0 8.10457 0 7ZM2 6.5H7C7.27614 6.5 7.5 6.72386 7.5 7C7.5 7.27614 7.27614 7.5 7 7.5H2C1.72386 7.5 1.5 7.27614 1.5 7C1.5 6.72386 1.72386 6.5 2 6.5Z" />
<path fill-rule="evenodd" clip-rule="evenodd" d="M2 10C0.895432 10 0 10.8954 0 12C0 13.1046 0.89543 14 2 14H7C8.10457 14 9 13.1046 9 12C9 10.8954 8.10457 10 7 10H2ZM7 11.5H2C1.72386 11.5 1.5 11.7239 1.5 12C1.5 12.2761 1.72386 12.5 2 12.5H7C7.27614 12.5 7.5 12.2761 7.5 12C7.5 11.7239 7.27614 11.5 7 11.5Z" />
<path fill-rule="evenodd" clip-rule="evenodd" d="M0 17C0 15.8954 0.895432 15 2 15H7C8.10457 15 9 15.8954 9 17C9 18.1046 8.10457 19 7 19H2C0.89543 19 0 18.1046 0 17ZM2 16.5H7C7.27614 16.5 7.5 16.7239 7.5 17C7.5 17.2761 7.27614 17.5 7 17.5H2C1.72386 17.5 1.5 17.2761 1.5 17C1.5 16.7239 1.72386 16.5 2 16.5Z" />
</svg>
