<svg width="19" height="19" viewBox="0 0 19 19"  xmlns="http://www.w3.org/2000/svg">
<path fill-rule="evenodd" clip-rule="evenodd" d="M2 0C0.895431 0 0 0.895431 0 2V7C0 8.10457 0.895431 9 2 9H9V2C9 0.895431 8.10457 0 7 0H2ZM7.5 2C7.5 1.72386 7.27614 1.5 7 1.5H2C1.72386 1.5 1.5 1.72386 1.5 2V7C1.5 7.27614 1.72386 7.5 2 7.5H7.5V2Z" />
<path fill-rule="evenodd" clip-rule="evenodd" d="M12 0C10.8954 0 10 0.895431 10 2V9H17C18.1046 9 19 8.10457 19 7V2C19 0.895431 18.1046 0 17 0H12ZM17.5 7C17.5 7.27614 17.2761 7.5 17 7.5H11.5V2C11.5 1.72386 11.7239 1.5 12 1.5L17 1.5C17.2761 1.5 17.5 1.72386 17.5 2V7Z" />
<path fill-rule="evenodd" clip-rule="evenodd" d="M2 10C0.895431 10 0 10.8954 0 12V17C0 18.1046 0.895431 19 2 19H7C8.10457 19 9 18.1046 9 17V10H2ZM2 11.5C1.72386 11.5 1.5 11.7239 1.5 12V17C1.5 17.2761 1.72386 17.5 2 17.5H7C7.27614 17.5 7.5 17.2761 7.5 17V11.5H2Z" />
<path fill-rule="evenodd" clip-rule="evenodd" d="M17 10H10V17C10 18.1046 10.8954 19 12 19H17C18.1046 19 19 18.1046 19 17V12C19 10.8954 18.1046 10 17 10ZM11.5 17C11.5 17.2761 11.7239 17.5 12 17.5H17C17.2761 17.5 17.5 17.2761 17.5 17V12C17.5 11.7239 17.2761 11.5 17 11.5H11.5V17Z" />
</svg>
