<svg width="19" height="19" viewBox="0 0 19 19" xmlns="http://www.w3.org/2000/svg">
<path fill-rule="evenodd" clip-rule="evenodd" d="M2 0C0.895431 0 0 0.895431 0 2V3C0 4.10457 0.895431 5 2 5H17C18.1046 5 19 4.10457 19 3V2C19 0.895431 18.1046 0 17 0H2ZM1.50391 2C1.50391 1.72386 1.72776 1.5 2.00391 1.5H17.0234C17.2996 1.5 17.5234 1.72386 17.5234 2V3C17.5234 3.27614 17.2996 3.5 17.0234 3.5H2.00391C1.72776 3.5 1.50391 3.27614 1.50391 3V2Z"/>
<path fill-rule="evenodd" clip-rule="evenodd" d="M2 7C0.895431 7 0 7.89543 0 9V10C0 11.1046 0.895431 12 2 12H17C18.1046 12 19 11.1046 19 10V9C19 7.89543 18.1046 7 17 7H2ZM1.50391 9C1.50391 8.72386 1.72776 8.5 2.00391 8.5H17.0234C17.2996 8.5 17.5234 8.72386 17.5234 9V10C17.5234 10.2761 17.2996 10.5 17.0234 10.5H2.00391C1.72776 10.5 1.50391 10.2761 1.50391 10V9Z"/>
<path fill-rule="evenodd" clip-rule="evenodd" d="M2 14C0.895431 14 0 14.8954 0 16V17C0 18.1046 0.895431 19 2 19H17C18.1046 19 19 18.1046 19 17V16C19 14.8954 18.1046 14 17 14H2ZM2.00391 15.5C1.72776 15.5 1.50391 15.7239 1.50391 16V17C1.50391 17.2761 1.72776 17.5 2.00391 17.5H17.0234C17.2996 17.5 17.5234 17.2761 17.5234 17V16C17.5234 15.7239 17.2996 15.5 17.0234 15.5H2.00391Z" />
</svg>
