<svg width="22" height="20" viewBox="0 0 22 20" fill="none" xmlns="http://www.w3.org/2000/svg">
<path d="M3.22188 3.17606C5.29951 1.12797 8.06184 0 11 0C13.9382 0 16.7005 1.12797 18.7781 3.17606C20.8558 5.22428 22 7.94754 22 10.8442C22 13.0205 21.3482 15.12 20.1153 16.9158L18.6921 15.9656C19.7317 14.4514 20.2812 12.6804 20.2812 10.8442C20.2812 5.79924 16.1177 1.69492 11 1.69492C5.88229 1.69492 1.71875 5.79924 1.71875 10.8442C1.71875 12.6804 2.26828 14.4514 3.30791 15.9656L1.88474 16.9158C0.65175 15.12 0 13.0205 0 10.8442C0 7.94754 1.14421 5.22428 3.22188 3.17606Z" fill="#CCCCCC"/>
<path d="M11 5.08475C10.5254 5.08475 10.1406 4.70533 10.1406 4.23729C10.1406 3.76925 10.5254 3.38983 11 3.38983C11.4746 3.38983 11.8594 3.76925 11.8594 4.23729C11.8594 4.70533 11.4746 5.08475 11 5.08475Z" fill="#CCCCCC"/>
<path d="M17.7031 11.6949C17.2285 11.6949 16.8438 11.3155 16.8438 10.8475C16.8438 10.3794 17.2285 10 17.7031 10C18.1777 10 18.5625 10.3794 18.5625 10.8475C18.5625 11.3155 18.1777 11.6949 17.7031 11.6949Z" fill="#CCCCCC"/>
<path d="M15.7266 7.0339C15.2519 7.0339 14.8672 6.65448 14.8672 6.18644C14.8672 5.7184 15.2519 5.33898 15.7266 5.33898C16.2012 5.33898 16.5859 5.7184 16.5859 6.18644C16.5859 6.65448 16.2012 7.0339 15.7266 7.0339Z" fill="#CCCCCC"/>
<path d="M4.29688 11.6949C3.82226 11.6949 3.4375 11.3155 3.4375 10.8475C3.4375 10.3794 3.82226 10 4.29688 10C4.77149 10 5.15625 10.3794 5.15625 10.8475C5.15625 11.3155 4.77149 11.6949 4.29688 11.6949Z" fill="#CCCCCC"/>
<path d="M5.21456 6.34081L6.42993 5.14229L10.8488 9.49987C10.8985 9.49449 10.9489 9.49153 11 9.49153C11.7594 9.49153 12.375 10.0986 12.375 10.8475C12.375 11.5963 11.7594 12.2034 11 12.2034C10.2406 12.2034 9.625 11.5963 9.625 10.8475C9.625 10.7971 9.62801 10.7474 9.63342 10.6984L5.21456 6.34081Z" fill="#CCCCCC"/>
<path d="M15.7266 14.9153V20H6.27344V14.9153H15.7266ZM7.99219 18.3051H14.0078V16.6102H7.99219V18.3051Z" fill="#CCCCCC"/>
</svg>
